<mxfile host="app.diagrams.net" modified="2022-08-05T12:47:21.205Z" agent="5.0 (Macintosh; Intel Mac OS X 10_15_7) AppleWebKit/537.36 (KHTML, like Gecko) Chrome/103.0.0.0 Safari/537.36" etag="zMX-NJDo_PIX8QtGJXng" version="20.2.3" type="github">
  <diagram id="PE-Y0wjKjiBt9aU_vtvI" name="Page-1">
    <mxGraphModel dx="1251" dy="735" grid="1" gridSize="10" guides="1" tooltips="1" connect="1" arrows="1" fold="1" page="1" pageScale="1" pageWidth="1654" pageHeight="1169" math="0" shadow="0">
      <root>
        <mxCell id="0" />
        <mxCell id="1" parent="0" />
        <mxCell id="q1z-KDDTVc9EoOrlDAyU-42" value="IPsec&amp;nbsp; options accross several connections&amp;nbsp;" style="text;html=1;align=center;verticalAlign=middle;resizable=0;points=[];autosize=1;strokeColor=none;fillColor=none;fontSize=12;fontColor=#000000;" parent="1" vertex="1">
          <mxGeometry x="25" y="444" width="260" height="30" as="geometry" />
        </mxCell>
        <mxCell id="q1z-KDDTVc9EoOrlDAyU-41" value="" style="rounded=1;whiteSpace=wrap;html=1;fontSize=10;fontColor=#000000;strokeColor=#F58534;fillColor=none;gradientColor=none;dashed=1;" parent="1" vertex="1">
          <mxGeometry x="10" y="170" width="400" height="290" as="geometry" />
        </mxCell>
        <mxCell id="q1z-KDDTVc9EoOrlDAyU-54" value="" style="rounded=1;whiteSpace=wrap;html=1;fontSize=10;fontColor=#000000;strokeColor=#F58534;strokeWidth=1;fillColor=none;gradientColor=none;" parent="1" vertex="1">
          <mxGeometry x="484" y="358" width="120" height="46" as="geometry" />
        </mxCell>
        <mxCell id="q1z-KDDTVc9EoOrlDAyU-29" value="" style="group" parent="1" vertex="1" connectable="0">
          <mxGeometry x="763" y="110" width="266" height="85" as="geometry" />
        </mxCell>
        <mxCell id="q1z-KDDTVc9EoOrlDAyU-26" value="" style="rounded=1;whiteSpace=wrap;html=1;fontSize=12;fontColor=#000000;strokeColor=default;fillColor=none;gradientColor=none;" parent="q1z-KDDTVc9EoOrlDAyU-29" vertex="1">
          <mxGeometry x="32" y="15" width="234" height="63" as="geometry" />
        </mxCell>
        <mxCell id="q1z-KDDTVc9EoOrlDAyU-22" value="&lt;ul&gt;&lt;li&gt;Remove&amp;nbsp; remote access tooling from&lt;/li&gt;&lt;/ul&gt;" style="text;html=1;align=center;verticalAlign=middle;resizable=0;points=[];autosize=1;strokeColor=none;fillColor=none;fontSize=12;fontColor=#000000;" parent="q1z-KDDTVc9EoOrlDAyU-29" vertex="1">
          <mxGeometry width="260" height="50" as="geometry" />
        </mxCell>
        <mxCell id="q1z-KDDTVc9EoOrlDAyU-23" value="&lt;ul&gt;&lt;li&gt;Prevent unauthorized remote memory&lt;/li&gt;&lt;/ul&gt;" style="text;html=1;align=center;verticalAlign=middle;resizable=0;points=[];autosize=1;strokeColor=none;fillColor=none;fontSize=12;fontColor=#000000;" parent="q1z-KDDTVc9EoOrlDAyU-29" vertex="1">
          <mxGeometry x="4" y="29" width="260" height="50" as="geometry" />
        </mxCell>
        <mxCell id="q1z-KDDTVc9EoOrlDAyU-24" value="customer-owned memory" style="text;html=1;align=center;verticalAlign=middle;resizable=0;points=[];autosize=1;strokeColor=none;fillColor=none;fontSize=12;fontColor=#000000;" parent="q1z-KDDTVc9EoOrlDAyU-29" vertex="1">
          <mxGeometry x="43" y="22" width="160" height="30" as="geometry" />
        </mxCell>
        <mxCell id="q1z-KDDTVc9EoOrlDAyU-25" value="reads from service-owned memory" style="text;html=1;align=center;verticalAlign=middle;resizable=0;points=[];autosize=1;strokeColor=none;fillColor=none;fontSize=12;fontColor=#000000;" parent="q1z-KDDTVc9EoOrlDAyU-29" vertex="1">
          <mxGeometry x="41.5" y="55" width="210" height="30" as="geometry" />
        </mxCell>
        <mxCell id="q1z-KDDTVc9EoOrlDAyU-63" value="" style="rounded=1;whiteSpace=wrap;html=1;fontSize=10;fontColor=#000000;strokeColor=#F58534;strokeWidth=1;fillColor=none;gradientColor=none;" parent="1" vertex="1">
          <mxGeometry x="653" y="338" width="177" height="30" as="geometry" />
        </mxCell>
        <mxCell id="PQI0NZv1REfv9DwnelCF-27" value="" style="rounded=1;whiteSpace=wrap;html=1;strokeColor=default;fillColor=none;gradientColor=none;" parent="1" vertex="1">
          <mxGeometry x="1466" y="649.5" width="50" height="141" as="geometry" />
        </mxCell>
        <mxCell id="PQI0NZv1REfv9DwnelCF-16" value="Dedicated, hardware-based &lt;br&gt;cryptographic key storage&amp;nbsp;" style="text;html=1;align=left;verticalAlign=middle;resizable=0;points=[];autosize=1;strokeColor=none;fillColor=none;" parent="1" vertex="1">
          <mxGeometry x="758" y="587" width="170" height="40" as="geometry" />
        </mxCell>
        <mxCell id="PQI0NZv1REfv9DwnelCF-1" value="Data Encription" style="text;html=1;align=center;verticalAlign=middle;resizable=0;points=[];autosize=1;strokeColor=default;fillColor=none;" parent="1" vertex="1">
          <mxGeometry x="556" y="460" width="110" height="30" as="geometry" />
        </mxCell>
        <mxCell id="PQI0NZv1REfv9DwnelCF-2" value="AWS Key Management Service" style="sketch=0;outlineConnect=0;fontColor=#232F3E;gradientColor=none;strokeColor=#ffffff;fillColor=#232F3E;dashed=0;verticalLabelPosition=middle;verticalAlign=bottom;align=center;html=1;whiteSpace=wrap;fontSize=10;fontStyle=1;spacing=3;shape=mxgraph.aws4.productIcon;prIcon=mxgraph.aws4.key_management_service;" parent="1" vertex="1">
          <mxGeometry x="313" y="569" width="35" height="75" as="geometry" />
        </mxCell>
        <mxCell id="PQI0NZv1REfv9DwnelCF-3" value="AWS CloudHSM" style="sketch=0;outlineConnect=0;fontColor=#232F3E;gradientColor=none;strokeColor=#ffffff;fillColor=#232F3E;dashed=0;verticalLabelPosition=middle;verticalAlign=bottom;align=center;html=1;whiteSpace=wrap;fontSize=10;fontStyle=1;spacing=3;shape=mxgraph.aws4.productIcon;prIcon=mxgraph.aws4.cloudhsm;" parent="1" vertex="1">
          <mxGeometry x="912" y="588" width="35" height="75" as="geometry" />
        </mxCell>
        <mxCell id="PQI0NZv1REfv9DwnelCF-5" value="Aws manage&amp;nbsp;&lt;br&gt;KMS keys" style="text;html=1;align=left;verticalAlign=middle;resizable=0;points=[];autosize=1;strokeColor=none;fillColor=none;" parent="1" vertex="1">
          <mxGeometry x="294" y="688" width="100" height="40" as="geometry" />
        </mxCell>
        <mxCell id="PQI0NZv1REfv9DwnelCF-9" value="" style="endArrow=none;html=1;rounded=0;exitX=1.032;exitY=0.155;exitDx=0;exitDy=0;exitPerimeter=0;" parent="1" edge="1" source="PQI0NZv1REfv9DwnelCF-11">
          <mxGeometry width="50" height="50" relative="1" as="geometry">
            <mxPoint x="340" y="540" as="sourcePoint" />
            <mxPoint x="542" y="500" as="targetPoint" />
          </mxGeometry>
        </mxCell>
        <mxCell id="PQI0NZv1REfv9DwnelCF-10" value="" style="endArrow=none;html=1;rounded=0;" parent="1" edge="1">
          <mxGeometry width="50" height="50" relative="1" as="geometry">
            <mxPoint x="920" y="580" as="sourcePoint" />
            <mxPoint x="612" y="500.5" as="targetPoint" />
          </mxGeometry>
        </mxCell>
        <mxCell id="PQI0NZv1REfv9DwnelCF-11" value="Flexible key &lt;br&gt;management options" style="text;html=1;align=left;verticalAlign=middle;resizable=0;points=[];autosize=1;strokeColor=none;fillColor=none;" parent="1" vertex="1">
          <mxGeometry x="192" y="551" width="140" height="40" as="geometry" />
        </mxCell>
        <mxCell id="PQI0NZv1REfv9DwnelCF-12" value="" style="strokeWidth=1;html=1;shape=mxgraph.flowchart.annotation_1;align=left;pointerEvents=1;fontColor=#000033;fillColor=none;strokeColor=#3399FF;" parent="1" vertex="1">
          <mxGeometry x="192" y="554" width="12" height="30" as="geometry" />
        </mxCell>
        <mxCell id="PQI0NZv1REfv9DwnelCF-13" value="" style="strokeWidth=1;html=1;shape=mxgraph.flowchart.annotation_1;align=left;pointerEvents=1;fontColor=#000033;fillColor=none;direction=west;strokeColor=#3399FF;" parent="1" vertex="1">
          <mxGeometry x="295" y="555" width="12" height="30" as="geometry" />
        </mxCell>
        <mxCell id="PQI0NZv1REfv9DwnelCF-14" value="" style="strokeWidth=1;html=1;shape=mxgraph.flowchart.annotation_1;align=left;pointerEvents=1;fontColor=#000033;fillColor=none;strokeColor=#3399FF;" parent="1" vertex="1">
          <mxGeometry x="766" y="672" width="12" height="29" as="geometry" />
        </mxCell>
        <mxCell id="PQI0NZv1REfv9DwnelCF-15" value="" style="strokeWidth=1;html=1;shape=mxgraph.flowchart.annotation_1;align=left;pointerEvents=1;fontColor=#000033;fillColor=none;direction=west;strokeColor=#3399FF;" parent="1" vertex="1">
          <mxGeometry x="899" y="591" width="12" height="29" as="geometry" />
        </mxCell>
        <mxCell id="PQI0NZv1REfv9DwnelCF-17" value="" style="endArrow=none;html=1;rounded=0;" parent="1" edge="1">
          <mxGeometry width="50" height="50" relative="1" as="geometry">
            <mxPoint x="672" y="497" as="sourcePoint" />
            <mxPoint x="1260" y="580" as="targetPoint" />
          </mxGeometry>
        </mxCell>
        <mxCell id="PQI0NZv1REfv9DwnelCF-18" value="Encripted Message Queue" style="text;html=1;align=center;verticalAlign=middle;resizable=0;points=[];autosize=1;strokeColor=default;fillColor=none;" parent="1" vertex="1">
          <mxGeometry x="1150" y="591" width="170" height="30" as="geometry" />
        </mxCell>
        <mxCell id="PQI0NZv1REfv9DwnelCF-20" value="" style="points=[[0.35,0,0],[0.98,0.51,0],[1,0.71,0],[0.67,1,0],[0,0.795,0],[0,0.65,0]];verticalLabelPosition=bottom;sketch=0;html=1;verticalAlign=top;aspect=fixed;align=center;pointerEvents=1;shape=mxgraph.cisco19.user;fillColor=#005073;strokeColor=none;" parent="1" vertex="1">
          <mxGeometry x="1174" y="694.5" width="40" height="40" as="geometry" />
        </mxCell>
        <mxCell id="PQI0NZv1REfv9DwnelCF-21" value="" style="endArrow=classic;html=1;rounded=0;" parent="1" edge="1">
          <mxGeometry width="50" height="50" relative="1" as="geometry">
            <mxPoint x="1229" y="714.5" as="sourcePoint" />
            <mxPoint x="1347" y="714.5" as="targetPoint" />
          </mxGeometry>
        </mxCell>
        <mxCell id="PQI0NZv1REfv9DwnelCF-23" value="&lt;b&gt;SQS&lt;/b&gt;" style="sketch=0;points=[[0,0,0],[0.25,0,0],[0.5,0,0],[0.75,0,0],[1,0,0],[0,1,0],[0.25,1,0],[0.5,1,0],[0.75,1,0],[1,1,0],[0,0.25,0],[0,0.5,0],[0,0.75,0],[1,0.25,0],[1,0.5,0],[1,0.75,0]];outlineConnect=0;fontColor=#232F3E;gradientColor=none;gradientDirection=north;fillColor=#000000;strokeColor=#ffffff;dashed=0;verticalLabelPosition=bottom;verticalAlign=top;align=center;html=1;fontSize=12;fontStyle=0;aspect=fixed;shape=mxgraph.aws4.resourceIcon;resIcon=mxgraph.aws4.sqs;" parent="1" vertex="1">
          <mxGeometry x="1355" y="690.5" width="46" height="46" as="geometry" />
        </mxCell>
        <mxCell id="PQI0NZv1REfv9DwnelCF-24" value="" style="endArrow=classic;html=1;rounded=0;" parent="1" edge="1">
          <mxGeometry width="50" height="50" relative="1" as="geometry">
            <mxPoint x="1404" y="715.5" as="sourcePoint" />
            <mxPoint x="1464" y="715.5" as="targetPoint" />
          </mxGeometry>
        </mxCell>
        <mxCell id="PQI0NZv1REfv9DwnelCF-25" value="" style="aspect=fixed;perimeter=ellipsePerimeter;html=1;align=center;shadow=0;dashed=0;spacingTop=3;image;image=img/lib/active_directory/generic_server.svg;strokeColor=default;fillColor=#000000;gradientColor=none;" parent="1" vertex="1">
          <mxGeometry x="1478" y="653.5" width="28.000000000000004" height="50" as="geometry" />
        </mxCell>
        <mxCell id="PQI0NZv1REfv9DwnelCF-26" value="" style="aspect=fixed;perimeter=ellipsePerimeter;html=1;align=center;shadow=0;dashed=0;spacingTop=3;image;image=img/lib/active_directory/generic_server.svg;strokeColor=default;fillColor=#000000;gradientColor=none;" parent="1" vertex="1">
          <mxGeometry x="1478" y="733.5" width="28.000000000000004" height="50" as="geometry" />
        </mxCell>
        <mxCell id="PQI0NZv1REfv9DwnelCF-28" value="&lt;b&gt;SSE&lt;/b&gt;: Server-side encryption is the encryption of data at&lt;br&gt;&amp;nbsp; &amp;nbsp; &amp;nbsp; &amp;nbsp; &amp;nbsp; &amp;nbsp; &amp;nbsp; &amp;nbsp; &amp;nbsp; &amp;nbsp; &amp;nbsp;its destination by the application or service thatreceives it" style="text;html=1;align=center;verticalAlign=middle;resizable=0;points=[];autosize=1;strokeColor=none;fillColor=none;" parent="1" vertex="1">
          <mxGeometry x="1197" y="833.5" width="400" height="40" as="geometry" />
        </mxCell>
        <mxCell id="PQI0NZv1REfv9DwnelCF-29" value="" style="ellipse;whiteSpace=wrap;html=1;strokeColor=#F58534;fillColor=none;gradientColor=none;dashed=1;" parent="1" vertex="1">
          <mxGeometry x="1332" y="607.5" width="225" height="224" as="geometry" />
        </mxCell>
        <mxCell id="PQI0NZv1REfv9DwnelCF-30" value="&lt;b&gt;SSE&lt;/b&gt;" style="text;html=1;align=center;verticalAlign=middle;resizable=0;points=[];autosize=1;strokeColor=none;fillColor=none;" parent="1" vertex="1">
          <mxGeometry x="1401" y="622.5" width="50" height="30" as="geometry" />
        </mxCell>
        <mxCell id="PQI0NZv1REfv9DwnelCF-31" value="Encrypted message queues for &lt;br&gt;the transmission of sensitive data" style="text;html=1;align=center;verticalAlign=middle;resizable=0;points=[];autosize=1;strokeColor=none;fillColor=none;" parent="1" vertex="1">
          <mxGeometry x="1140" y="618.5" width="200" height="40" as="geometry" />
        </mxCell>
        <mxCell id="PQI0NZv1REfv9DwnelCF-32" value="" style="strokeWidth=1;html=1;shape=mxgraph.flowchart.annotation_1;align=left;pointerEvents=1;fontColor=#000033;fillColor=none;strokeColor=#3399FF;" parent="1" vertex="1">
          <mxGeometry x="1150" y="623.5" width="12" height="30" as="geometry" />
        </mxCell>
        <mxCell id="PQI0NZv1REfv9DwnelCF-33" value="" style="strokeWidth=1;html=1;shape=mxgraph.flowchart.annotation_1;align=left;pointerEvents=1;fontColor=#000033;fillColor=none;direction=west;strokeColor=#3399FF;" parent="1" vertex="1">
          <mxGeometry x="1318" y="624.5" width="12" height="30" as="geometry" />
        </mxCell>
        <mxCell id="PQI0NZv1REfv9DwnelCF-34" value="&lt;b&gt;H&lt;/b&gt;ardware &lt;b&gt;S&lt;/b&gt;ecurity &lt;b&gt;M&lt;/b&gt;odule&lt;br&gt;&amp;nbsp;in the AWS Cloud&amp;nbsp;&lt;b&gt;(HSM)&lt;/b&gt;" style="text;html=1;align=center;verticalAlign=middle;resizable=0;points=[];autosize=1;strokeColor=none;fillColor=none;" parent="1" vertex="1">
          <mxGeometry x="849.5" y="659.5" width="160" height="40" as="geometry" />
        </mxCell>
        <mxCell id="q1z-KDDTVc9EoOrlDAyU-2" value="&lt;font color=&quot;#ff3333&quot;&gt;&lt;b&gt;create and control &lt;br&gt;the cryptographic keys&lt;br&gt;that are used to protect &lt;br&gt;your data&lt;/b&gt;&lt;/font&gt;" style="text;html=1;align=center;verticalAlign=middle;resizable=0;points=[];autosize=1;strokeColor=none;fillColor=none;fontSize=10;" parent="1" vertex="1">
          <mxGeometry x="177" y="585" width="130" height="60" as="geometry" />
        </mxCell>
        <mxCell id="q1z-KDDTVc9EoOrlDAyU-5" value="" style="endArrow=none;html=1;rounded=0;fontSize=10;fontColor=#FF3333;" parent="1" edge="1">
          <mxGeometry width="50" height="50" relative="1" as="geometry">
            <mxPoint x="252" y="772" as="sourcePoint" />
            <mxPoint x="303" y="730" as="targetPoint" />
          </mxGeometry>
        </mxCell>
        <mxCell id="q1z-KDDTVc9EoOrlDAyU-6" value="" style="endArrow=none;html=1;rounded=0;fontSize=10;fontColor=#FF3333;" parent="1" edge="1">
          <mxGeometry width="50" height="50" relative="1" as="geometry">
            <mxPoint x="392" y="772" as="sourcePoint" />
            <mxPoint x="343" y="730" as="targetPoint" />
          </mxGeometry>
        </mxCell>
        <mxCell id="q1z-KDDTVc9EoOrlDAyU-7" value="&lt;font style=&quot;font-size: 12px;&quot; color=&quot;#000000&quot;&gt;&lt;b&gt;Symmetric&lt;/b&gt;&lt;/font&gt;" style="text;html=1;align=center;verticalAlign=middle;resizable=0;points=[];autosize=1;strokeColor=none;fillColor=none;fontSize=10;fontColor=#FF3333;" parent="1" vertex="1">
          <mxGeometry x="183" y="779" width="80" height="30" as="geometry" />
        </mxCell>
        <mxCell id="q1z-KDDTVc9EoOrlDAyU-8" value="Asymmetric" style="text;html=1;align=center;verticalAlign=middle;resizable=0;points=[];autosize=1;strokeColor=none;fillColor=none;fontSize=12;fontColor=#000000;" parent="1" vertex="1">
          <mxGeometry x="320" y="777" width="90" height="30" as="geometry" />
        </mxCell>
        <mxCell id="q1z-KDDTVc9EoOrlDAyU-9" value="" style="shape=curlyBracket;whiteSpace=wrap;html=1;rounded=1;flipH=1;fontSize=12;fontColor=#000000;strokeColor=default;fillColor=none;gradientColor=none;direction=north;" parent="1" vertex="1">
          <mxGeometry x="182" y="797" width="78" height="20" as="geometry" />
        </mxCell>
        <mxCell id="q1z-KDDTVc9EoOrlDAyU-10" value="&lt;ol&gt;&lt;li&gt;creating&amp;nbsp;&lt;/li&gt;&lt;li&gt;viewing&lt;/li&gt;&lt;li&gt;editing&lt;/li&gt;&lt;li&gt;&lt;b&gt;tagging&lt;/b&gt;&lt;/li&gt;&lt;li&gt;enabling&lt;/li&gt;&lt;li&gt;deleting&lt;/li&gt;&lt;li&gt;coudformation template&amp;nbsp;&lt;/li&gt;&lt;/ol&gt;" style="text;html=1;align=left;verticalAlign=middle;resizable=0;points=[];autosize=1;strokeColor=none;fillColor=none;fontSize=12;fontColor=#000000;" parent="1" vertex="1">
          <mxGeometry x="164" y="807" width="190" height="140" as="geometry" />
        </mxCell>
        <mxCell id="q1z-KDDTVc9EoOrlDAyU-12" value="Controlling&amp;nbsp; Logical access&lt;br&gt;to data in the cloud" style="text;html=1;align=center;verticalAlign=middle;resizable=0;points=[];autosize=1;strokeColor=none;fillColor=none;fontSize=12;fontColor=#000000;" parent="1" vertex="1">
          <mxGeometry x="435" y="15" width="170" height="40" as="geometry" />
        </mxCell>
        <mxCell id="q1z-KDDTVc9EoOrlDAyU-13" value="Data in&amp;nbsp;&lt;br&gt;transport" style="text;html=1;align=center;verticalAlign=middle;resizable=0;points=[];autosize=1;strokeColor=none;fillColor=none;fontSize=12;fontColor=#000000;" parent="1" vertex="1">
          <mxGeometry x="145" y="70" width="70" height="40" as="geometry" />
        </mxCell>
        <mxCell id="q1z-KDDTVc9EoOrlDAyU-14" value="Data at&amp;nbsp;&lt;br&gt;Rest" style="text;html=1;align=center;verticalAlign=middle;resizable=0;points=[];autosize=1;strokeColor=none;fillColor=none;fontSize=12;fontColor=#000000;" parent="1" vertex="1">
          <mxGeometry x="527" y="70" width="70" height="40" as="geometry" />
        </mxCell>
        <mxCell id="q1z-KDDTVc9EoOrlDAyU-15" value="Data in&amp;nbsp;&lt;br&gt;use" style="text;html=1;align=center;verticalAlign=middle;resizable=0;points=[];autosize=1;strokeColor=none;fillColor=none;fontSize=12;fontColor=#000000;" parent="1" vertex="1">
          <mxGeometry x="842" y="70" width="60" height="40" as="geometry" />
        </mxCell>
        <mxCell id="q1z-KDDTVc9EoOrlDAyU-27" value="" style="group" parent="1" vertex="1" connectable="0">
          <mxGeometry x="423" y="110" width="280" height="80" as="geometry" />
        </mxCell>
        <mxCell id="q1z-KDDTVc9EoOrlDAyU-19" value="&lt;ul&gt;&lt;li&gt;&lt;span style=&quot;background-color: initial;&quot;&gt;Access controls on data resource&amp;nbsp;&lt;/span&gt;&lt;/li&gt;&lt;li&gt;&lt;span style=&quot;background-color: initial;&quot;&gt;Encription(fil,file system, block, full disk )&lt;/span&gt;&lt;/li&gt;&lt;/ul&gt;&lt;span style=&quot;background-color: initial;&quot;&gt;&amp;nbsp; &amp;nbsp; &amp;nbsp; &amp;nbsp; &amp;nbsp; &amp;nbsp;&amp;nbsp;&lt;/span&gt;" style="text;html=1;align=left;verticalAlign=middle;resizable=0;points=[];autosize=1;strokeColor=none;fillColor=none;fontSize=12;fontColor=#000000;" parent="q1z-KDDTVc9EoOrlDAyU-27" vertex="1">
          <mxGeometry x="40" width="280" height="80" as="geometry" />
        </mxCell>
        <mxCell id="q1z-KDDTVc9EoOrlDAyU-20" value="&lt;span style=&quot;text-align: left;&quot;&gt;with keys&amp;nbsp;&lt;/span&gt;" style="text;html=1;align=center;verticalAlign=middle;resizable=0;points=[];autosize=1;strokeColor=none;fillColor=none;fontSize=12;fontColor=#000000;" parent="q1z-KDDTVc9EoOrlDAyU-27" vertex="1">
          <mxGeometry x="69" y="41" width="80" height="30" as="geometry" />
        </mxCell>
        <mxCell id="q1z-KDDTVc9EoOrlDAyU-21" value="" style="rounded=1;whiteSpace=wrap;html=1;fontSize=12;fontColor=#000000;strokeColor=default;fillColor=none;gradientColor=none;" parent="q1z-KDDTVc9EoOrlDAyU-27" vertex="1">
          <mxGeometry x="64" y="15" width="235" height="51" as="geometry" />
        </mxCell>
        <mxCell id="q1z-KDDTVc9EoOrlDAyU-28" value="" style="group" parent="1" vertex="1" connectable="0">
          <mxGeometry x="25" y="108" width="320" height="70" as="geometry" />
        </mxCell>
        <mxCell id="q1z-KDDTVc9EoOrlDAyU-17" value="" style="rounded=1;whiteSpace=wrap;html=1;fontSize=12;fontColor=#000000;strokeColor=default;fillColor=none;gradientColor=none;" parent="q1z-KDDTVc9EoOrlDAyU-28" vertex="1">
          <mxGeometry x="21" y="17" width="299" height="32" as="geometry" />
        </mxCell>
        <mxCell id="q1z-KDDTVc9EoOrlDAyU-16" value="&lt;div style=&quot;text-align: left;&quot;&gt;&lt;ul&gt;&lt;li&gt;&lt;span style=&quot;background-color: initial;&quot;&gt;Networking access control(security groups, vpcs)&lt;/span&gt;&lt;/li&gt;&lt;li&gt;&lt;span style=&quot;background-color: initial;&quot;&gt;&amp;nbsp;Transport Layer Security(TLS), IPSec&lt;/span&gt;&lt;/li&gt;&lt;/ul&gt;&lt;/div&gt;" style="text;html=1;align=center;verticalAlign=middle;resizable=0;points=[];autosize=1;strokeColor=none;fillColor=none;fontSize=12;fontColor=#000000;" parent="q1z-KDDTVc9EoOrlDAyU-28" vertex="1">
          <mxGeometry width="320" height="70" as="geometry" />
        </mxCell>
        <mxCell id="q1z-KDDTVc9EoOrlDAyU-30" value="&lt;font style=&quot;font-size: 10px;&quot;&gt;&lt;b&gt;Vpn encryption between&amp;nbsp;&lt;br&gt;newer instances&lt;/b&gt;&lt;/font&gt;" style="sketch=0;points=[[0,0,0],[0.25,0,0],[0.5,0,0],[0.75,0,0],[1,0,0],[0,1,0],[0.25,1,0],[0.5,1,0],[0.75,1,0],[1,1,0],[0,0.25,0],[0,0.5,0],[0,0.75,0],[1,0.25,0],[1,0.5,0],[1,0.75,0]];outlineConnect=0;fontColor=#232F3E;gradientColor=#945DF2;gradientDirection=north;fillColor=#5A30B5;strokeColor=#ffffff;dashed=0;verticalLabelPosition=bottom;verticalAlign=top;align=center;html=1;fontSize=12;fontStyle=0;aspect=fixed;shape=mxgraph.aws4.resourceIcon;resIcon=mxgraph.aws4.vpc;" parent="1" vertex="1">
          <mxGeometry x="52" y="181" width="40" height="40" as="geometry" />
        </mxCell>
        <mxCell id="q1z-KDDTVc9EoOrlDAyU-31" value="&lt;font style=&quot;font-size: 10px;&quot;&gt;&lt;b&gt;IPsec VPN connection&lt;br&gt;between your VPC and&amp;nbsp;&lt;br&gt;your remote network&lt;/b&gt;&lt;/font&gt;" style="sketch=0;points=[[0,0,0],[0.25,0,0],[0.5,0,0],[0.75,0,0],[1,0,0],[0,1,0],[0.25,1,0],[0.5,1,0],[0.75,1,0],[1,1,0],[0,0.25,0],[0,0.5,0],[0,0.75,0],[1,0.25,0],[1,0.5,0],[1,0.75,0]];outlineConnect=0;fontColor=#232F3E;gradientColor=#945DF2;gradientDirection=north;fillColor=#5A30B5;strokeColor=#ffffff;dashed=0;verticalLabelPosition=bottom;verticalAlign=top;align=center;html=1;fontSize=12;fontStyle=0;aspect=fixed;shape=mxgraph.aws4.resourceIcon;resIcon=mxgraph.aws4.client_vpn;" parent="1" vertex="1">
          <mxGeometry x="278" y="181" width="40" height="40" as="geometry" />
        </mxCell>
        <mxCell id="q1z-KDDTVc9EoOrlDAyU-32" value="&lt;b style=&quot;font-size: 10px;&quot;&gt;vpn cloudhub over &lt;br&gt;AWS direct connect&amp;nbsp;&lt;/b&gt;" style="sketch=0;points=[[0,0,0],[0.25,0,0],[0.5,0,0],[0.75,0,0],[1,0,0],[0,1,0],[0.25,1,0],[0.5,1,0],[0.75,1,0],[1,1,0],[0,0.25,0],[0,0.5,0],[0,0.75,0],[1,0.25,0],[1,0.5,0],[1,0.75,0]];outlineConnect=0;fontColor=#232F3E;gradientColor=#945DF2;gradientDirection=north;fillColor=#5A30B5;strokeColor=#ffffff;dashed=0;verticalLabelPosition=bottom;verticalAlign=top;align=center;html=1;fontSize=12;fontStyle=0;aspect=fixed;shape=mxgraph.aws4.resourceIcon;resIcon=mxgraph.aws4.direct_connect;" parent="1" vertex="1">
          <mxGeometry x="54" y="278" width="40" height="40" as="geometry" />
        </mxCell>
        <mxCell id="q1z-KDDTVc9EoOrlDAyU-33" value="virtual private gateway provides 2 VPN &lt;br&gt;endpoints for automattic failover" style="text;html=1;align=left;verticalAlign=middle;resizable=0;points=[];autosize=1;strokeColor=none;fillColor=none;fontSize=10;fontColor=#000000;" parent="1" vertex="1">
          <mxGeometry x="215" y="271" width="200" height="40" as="geometry" />
        </mxCell>
        <mxCell id="q1z-KDDTVc9EoOrlDAyU-34" value="" style="strokeWidth=1;html=1;shape=mxgraph.flowchart.annotation_1;align=left;pointerEvents=1;fontColor=#000033;fillColor=none;strokeColor=#3399FF;" parent="1" vertex="1">
          <mxGeometry x="214.5" y="278" width="12" height="26" as="geometry" />
        </mxCell>
        <mxCell id="q1z-KDDTVc9EoOrlDAyU-35" value="" style="strokeWidth=1;html=1;shape=mxgraph.flowchart.annotation_1;align=left;pointerEvents=1;fontColor=#000033;fillColor=none;direction=west;strokeColor=#3399FF;" parent="1" vertex="1">
          <mxGeometry x="380.5" y="278" width="12" height="26" as="geometry" />
        </mxCell>
        <mxCell id="q1z-KDDTVc9EoOrlDAyU-36" value="managed VPN connection enable&lt;br&gt;communication&amp;nbsp;between multiple&lt;br&gt;remote network" style="text;html=1;align=left;verticalAlign=middle;resizable=0;points=[];autosize=1;strokeColor=none;fillColor=none;fontSize=10;fontColor=#000000;" parent="1" vertex="1">
          <mxGeometry x="18" y="349" width="170" height="50" as="geometry" />
        </mxCell>
        <mxCell id="q1z-KDDTVc9EoOrlDAyU-37" value="" style="strokeWidth=1;html=1;shape=mxgraph.flowchart.annotation_1;align=left;pointerEvents=1;fontColor=#000033;fillColor=none;strokeColor=#3399FF;" parent="1" vertex="1">
          <mxGeometry x="17" y="356" width="12" height="36" as="geometry" />
        </mxCell>
        <mxCell id="q1z-KDDTVc9EoOrlDAyU-38" value="" style="strokeWidth=1;html=1;shape=mxgraph.flowchart.annotation_1;align=left;pointerEvents=1;fontColor=#000033;fillColor=none;direction=west;strokeColor=#3399FF;" parent="1" vertex="1">
          <mxGeometry x="158" y="356" width="12" height="36" as="geometry" />
        </mxCell>
        <mxCell id="q1z-KDDTVc9EoOrlDAyU-39" value="&lt;b style=&quot;font-size: 10px;&quot;&gt;Third-party sftware&amp;nbsp;&lt;br&gt;VPN appliance&lt;/b&gt;" style="sketch=0;points=[[0,0,0],[0.25,0,0],[0.5,0,0],[0.75,0,0],[1,0,0],[0,1,0],[0.25,1,0],[0.5,1,0],[0.75,1,0],[1,1,0],[0,0.25,0],[0,0.5,0],[0,0.75,0],[1,0.25,0],[1,0.5,0],[1,0.75,0]];outlineConnect=0;fontColor=#232F3E;gradientColor=#945DF2;gradientDirection=north;fillColor=#5A30B5;strokeColor=#ffffff;dashed=0;verticalLabelPosition=bottom;verticalAlign=top;align=center;html=1;fontSize=12;fontStyle=0;aspect=fixed;shape=mxgraph.aws4.resourceIcon;resIcon=mxgraph.aws4.site_to_site_vpn;" parent="1" vertex="1">
          <mxGeometry x="281" y="319" width="40" height="40" as="geometry" />
        </mxCell>
        <mxCell id="q1z-KDDTVc9EoOrlDAyU-43" value="" style="strokeWidth=1;html=1;shape=mxgraph.flowchart.annotation_2;align=left;labelPosition=right;pointerEvents=1;fontSize=12;fontColor=#000000;fillColor=none;gradientColor=none;direction=south;" parent="1" vertex="1">
          <mxGeometry x="176" y="49" width="695" height="21" as="geometry" />
        </mxCell>
        <mxCell id="q1z-KDDTVc9EoOrlDAyU-45" value="" style="endArrow=none;html=1;rounded=0;fontSize=12;fontColor=#000000;" parent="1" edge="1">
          <mxGeometry width="50" height="50" relative="1" as="geometry">
            <mxPoint x="559" y="73" as="sourcePoint" />
            <mxPoint x="559" y="60" as="targetPoint" />
          </mxGeometry>
        </mxCell>
        <mxCell id="q1z-KDDTVc9EoOrlDAyU-46" value="" style="endArrow=none;html=1;rounded=0;fontSize=12;fontColor=#000000;" parent="1" edge="1">
          <mxGeometry width="50" height="50" relative="1" as="geometry">
            <mxPoint x="540" y="239" as="sourcePoint" />
            <mxPoint x="590" y="189" as="targetPoint" />
          </mxGeometry>
        </mxCell>
        <mxCell id="q1z-KDDTVc9EoOrlDAyU-47" value="" style="endArrow=none;html=1;rounded=0;fontSize=12;fontColor=#000000;" parent="1" edge="1">
          <mxGeometry width="50" height="50" relative="1" as="geometry">
            <mxPoint x="679" y="240" as="sourcePoint" />
            <mxPoint x="620" y="189" as="targetPoint" />
          </mxGeometry>
        </mxCell>
        <mxCell id="q1z-KDDTVc9EoOrlDAyU-48" value="Client- side&amp;nbsp;&lt;br&gt;encryption" style="text;html=1;align=center;verticalAlign=middle;resizable=0;points=[];autosize=1;strokeColor=none;fillColor=none;fontSize=12;fontColor=#000000;" parent="1" vertex="1">
          <mxGeometry x="493" y="242" width="90" height="40" as="geometry" />
        </mxCell>
        <mxCell id="q1z-KDDTVc9EoOrlDAyU-49" value="Server-side" style="text;html=1;align=center;verticalAlign=middle;resizable=0;points=[];autosize=1;strokeColor=none;fillColor=none;fontSize=12;fontColor=#000000;" parent="1" vertex="1">
          <mxGeometry x="664" y="240" width="80" height="30" as="geometry" />
        </mxCell>
        <mxCell id="q1z-KDDTVc9EoOrlDAyU-51" value="&lt;span style=&quot;text-align: left;&quot;&gt;Encripting data before&lt;/span&gt;&lt;br style=&quot;text-align: left;&quot;&gt;&lt;span style=&quot;text-align: left;&quot;&gt;submitining it to an&lt;/span&gt;&lt;br style=&quot;text-align: left;&quot;&gt;&lt;span style=&quot;text-align: left;&quot;&gt;AWS Service&lt;/span&gt;" style="text;html=1;align=center;verticalAlign=middle;resizable=0;points=[];autosize=1;strokeColor=none;fillColor=none;fontSize=10;fontColor=#000000;" parent="1" vertex="1">
          <mxGeometry x="480" y="292" width="120" height="50" as="geometry" />
        </mxCell>
        <mxCell id="q1z-KDDTVc9EoOrlDAyU-52" value="Supply encryption Keys or &lt;br&gt;use keys in AWS KMS &lt;br&gt;under your control&amp;nbsp;" style="text;html=1;align=center;verticalAlign=middle;resizable=0;points=[];autosize=1;strokeColor=none;fillColor=none;fontSize=10;fontColor=#000000;" parent="1" vertex="1">
          <mxGeometry x="475" y="357" width="140" height="50" as="geometry" />
        </mxCell>
        <mxCell id="q1z-KDDTVc9EoOrlDAyU-53" value="" style="rounded=1;whiteSpace=wrap;html=1;fontSize=10;fontColor=#000000;strokeColor=#F58534;strokeWidth=1;fillColor=none;gradientColor=none;" parent="1" vertex="1">
          <mxGeometry x="482" y="292" width="112" height="48" as="geometry" />
        </mxCell>
        <mxCell id="q1z-KDDTVc9EoOrlDAyU-55" value="1" style="ellipse;whiteSpace=wrap;html=1;aspect=fixed;fontSize=10;fontColor=#000000;strokeColor=#F58534;strokeWidth=1;fillColor=none;gradientColor=none;" parent="1" vertex="1">
          <mxGeometry x="466" y="278" width="16" height="16" as="geometry" />
        </mxCell>
        <mxCell id="q1z-KDDTVc9EoOrlDAyU-58" value="2" style="ellipse;whiteSpace=wrap;html=1;aspect=fixed;fontSize=10;fontColor=#000000;strokeColor=#F58534;strokeWidth=1;fillColor=none;gradientColor=none;" parent="1" vertex="1">
          <mxGeometry x="464" y="350" width="16" height="16" as="geometry" />
        </mxCell>
        <mxCell id="q1z-KDDTVc9EoOrlDAyU-59" value="AWS encrypts data on your behalf &lt;br&gt;after it is received by the service" style="text;html=1;align=center;verticalAlign=middle;resizable=0;points=[];autosize=1;strokeColor=none;fillColor=none;fontSize=10;fontColor=#000000;" parent="1" vertex="1">
          <mxGeometry x="647" y="282" width="170" height="40" as="geometry" />
        </mxCell>
        <mxCell id="q1z-KDDTVc9EoOrlDAyU-60" value="Many Services like&amp;nbsp; S3, EBS, RDS .... &lt;br&gt;include encryption service" style="text;html=1;align=left;verticalAlign=middle;resizable=0;points=[];autosize=1;strokeColor=none;fillColor=none;fontSize=10;fontColor=#000000;" parent="1" vertex="1">
          <mxGeometry x="657" y="333" width="190" height="40" as="geometry" />
        </mxCell>
        <mxCell id="q1z-KDDTVc9EoOrlDAyU-61" value="Integrated with AWS KMS, you &lt;br&gt;control key lifecycle and permission&amp;nbsp;" style="text;html=1;align=left;verticalAlign=middle;resizable=0;points=[];autosize=1;strokeColor=none;fillColor=none;fontSize=10;fontColor=#000000;" parent="1" vertex="1">
          <mxGeometry x="654" y="383" width="180" height="40" as="geometry" />
        </mxCell>
        <mxCell id="q1z-KDDTVc9EoOrlDAyU-62" value="" style="rounded=1;whiteSpace=wrap;html=1;fontSize=10;fontColor=#000000;strokeColor=#F58534;strokeWidth=1;fillColor=none;gradientColor=none;" parent="1" vertex="1">
          <mxGeometry x="652" y="286" width="160" height="30" as="geometry" />
        </mxCell>
        <mxCell id="q1z-KDDTVc9EoOrlDAyU-64" value="" style="rounded=1;whiteSpace=wrap;html=1;fontSize=10;fontColor=#000000;strokeColor=#F58534;strokeWidth=1;fillColor=none;gradientColor=none;" parent="1" vertex="1">
          <mxGeometry x="652" y="386" width="164" height="34" as="geometry" />
        </mxCell>
        <mxCell id="q1z-KDDTVc9EoOrlDAyU-66" value="1" style="ellipse;whiteSpace=wrap;html=1;aspect=fixed;fontSize=10;fontColor=#000000;strokeColor=#F58534;strokeWidth=1;fillColor=none;gradientColor=none;" parent="1" vertex="1">
          <mxGeometry x="634" y="275" width="16" height="16" as="geometry" />
        </mxCell>
        <mxCell id="q1z-KDDTVc9EoOrlDAyU-67" value="2" style="ellipse;whiteSpace=wrap;html=1;aspect=fixed;fontSize=10;fontColor=#000000;strokeColor=#F58534;strokeWidth=1;fillColor=none;gradientColor=none;" parent="1" vertex="1">
          <mxGeometry x="633" y="326" width="16" height="16" as="geometry" />
        </mxCell>
        <mxCell id="q1z-KDDTVc9EoOrlDAyU-68" value="3" style="ellipse;whiteSpace=wrap;html=1;aspect=fixed;fontSize=10;fontColor=#000000;strokeColor=#F58534;strokeWidth=1;fillColor=none;gradientColor=none;" parent="1" vertex="1">
          <mxGeometry x="632" y="376" width="16" height="16" as="geometry" />
        </mxCell>
        <mxCell id="q1z-KDDTVc9EoOrlDAyU-69" value="&lt;b&gt;&lt;font color=&quot;#ff3333&quot;&gt;computing device that processes &lt;br&gt;cryptographic operations and &lt;br&gt;provides secure storage for &lt;br&gt;cryptographic keys.&lt;/font&gt;&lt;/b&gt;" style="text;html=1;align=center;verticalAlign=middle;resizable=0;points=[];autosize=1;strokeColor=none;fillColor=none;fontSize=10;fontColor=#000000;" parent="1" vertex="1">
          <mxGeometry x="848" y="697.5" width="180" height="60" as="geometry" />
        </mxCell>
        <mxCell id="q1z-KDDTVc9EoOrlDAyU-70" value="&lt;span style=&quot;color: rgb(84, 91, 100); font-family: &amp;quot;Amazon Ember&amp;quot;, &amp;quot;Helvetica Neue&amp;quot;, Roboto, Arial, sans-serif; text-align: start; background-color: rgb(255, 255, 255);&quot;&gt;© 2022, Scadip SL&amp;nbsp;&lt;/span&gt;&lt;span style=&quot;color: rgb(84, 91, 100); font-family: &amp;quot;Amazon Ember&amp;quot;, &amp;quot;Helvetica Neue&amp;quot;, Roboto, Arial, sans-serif; text-align: start; background-color: rgb(255, 255, 255);&quot;&gt;. All rights reserved.&lt;/span&gt;" style="text;html=1;align=center;verticalAlign=middle;resizable=0;points=[];autosize=1;strokeColor=none;fillColor=none;fontSize=12;" parent="1" vertex="1">
          <mxGeometry x="70" y="1090" width="230" height="20" as="geometry" />
        </mxCell>
        <mxCell id="q1z-KDDTVc9EoOrlDAyU-71" value="cryptographic keys:&lt;br&gt;&lt;ol&gt;&lt;li&gt;generate&lt;/li&gt;&lt;li&gt;import&lt;/li&gt;&lt;li&gt;export&lt;/li&gt;&lt;li&gt;manage&amp;nbsp;&lt;/li&gt;&lt;/ol&gt;" style="text;whiteSpace=wrap;html=1;fontSize=12;fontColor=#000000;" parent="1" vertex="1">
          <mxGeometry x="814.5" y="787.5" width="125" height="86" as="geometry" />
        </mxCell>
        <mxCell id="q1z-KDDTVc9EoOrlDAyU-72" value="Cryptographically sign &lt;br&gt;data (including code signing)&lt;br&gt;&amp;nbsp;and verify signatures" style="text;html=1;align=left;verticalAlign=middle;resizable=0;points=[];autosize=1;strokeColor=none;fillColor=none;fontSize=12;fontColor=#000000;" parent="1" vertex="1">
          <mxGeometry x="960" y="788.5" width="180" height="60" as="geometry" />
        </mxCell>
        <mxCell id="q1z-KDDTVc9EoOrlDAyU-73" value="" style="endArrow=none;html=1;rounded=0;fontSize=10;fontColor=#FF3333;" parent="1" edge="1">
          <mxGeometry width="50" height="50" relative="1" as="geometry">
            <mxPoint x="900" y="793.5" as="sourcePoint" />
            <mxPoint x="917" y="760.5" as="targetPoint" />
          </mxGeometry>
        </mxCell>
        <mxCell id="q1z-KDDTVc9EoOrlDAyU-74" value="" style="endArrow=none;html=1;rounded=0;fontSize=10;fontColor=#FF3333;" parent="1" edge="1">
          <mxGeometry width="50" height="50" relative="1" as="geometry">
            <mxPoint x="969" y="793.5" as="sourcePoint" />
            <mxPoint x="958.5" y="760.5" as="targetPoint" />
          </mxGeometry>
        </mxCell>
        <mxCell id="v05VvSrc3apIEG9Jjrkb-1" value="AWS managed key&amp;nbsp;is unique to your &lt;br&gt;AWS account and the Region where &lt;br&gt;it’s used" style="text;html=1;align=left;verticalAlign=middle;resizable=0;points=[];autosize=1;strokeColor=default;fillColor=none;rounded=1;" parent="1" vertex="1">
          <mxGeometry x="130" y="940" width="220" height="60" as="geometry" />
        </mxCell>
        <mxCell id="1nwDkbsSWTysiVb-nrvI-2" value="&lt;font style=&quot;font-size: 10px;&quot;&gt;recommended and &lt;br&gt;typically used&amp;nbsp;&lt;/font&gt;" style="text;html=1;align=center;verticalAlign=middle;resizable=0;points=[];autosize=1;strokeColor=none;fillColor=none;" vertex="1" parent="1">
          <mxGeometry x="80" y="777" width="110" height="40" as="geometry" />
        </mxCell>
        <mxCell id="1nwDkbsSWTysiVb-nrvI-3" value="" style="strokeWidth=1;html=1;shape=mxgraph.flowchart.annotation_1;align=left;pointerEvents=1;fontColor=#000033;fillColor=none;strokeColor=#3399FF;" vertex="1" parent="1">
          <mxGeometry x="89" y="784" width="12" height="26" as="geometry" />
        </mxCell>
        <mxCell id="1nwDkbsSWTysiVb-nrvI-4" value="" style="strokeWidth=1;html=1;shape=mxgraph.flowchart.annotation_1;align=left;pointerEvents=1;fontColor=#000033;fillColor=none;direction=west;strokeColor=#3399FF;" vertex="1" parent="1">
          <mxGeometry x="164" y="784" width="12" height="26" as="geometry" />
        </mxCell>
        <mxCell id="1nwDkbsSWTysiVb-nrvI-5" value="&lt;span style=&quot;font-size: 10px;&quot;&gt;mostly for encryption &lt;br&gt;and signing&lt;/span&gt;" style="text;html=1;align=left;verticalAlign=middle;resizable=0;points=[];autosize=1;strokeColor=none;fillColor=none;" vertex="1" parent="1">
          <mxGeometry x="398.5" y="774" width="120" height="40" as="geometry" />
        </mxCell>
        <mxCell id="1nwDkbsSWTysiVb-nrvI-6" value="" style="strokeWidth=1;html=1;shape=mxgraph.flowchart.annotation_1;align=left;pointerEvents=1;fontColor=#000033;fillColor=none;strokeColor=#3399FF;" vertex="1" parent="1">
          <mxGeometry x="399.5" y="781" width="12" height="26" as="geometry" />
        </mxCell>
        <mxCell id="1nwDkbsSWTysiVb-nrvI-7" value="" style="strokeWidth=1;html=1;shape=mxgraph.flowchart.annotation_1;align=left;pointerEvents=1;fontColor=#000033;fillColor=none;direction=west;strokeColor=#3399FF;" vertex="1" parent="1">
          <mxGeometry x="482.5" y="781" width="12" height="26" as="geometry" />
        </mxCell>
        <mxCell id="1nwDkbsSWTysiVb-nrvI-8" value="&lt;b&gt;Represents a mathematically related &lt;br&gt;public key and private key pair that &lt;br&gt;you can use for encryption and &lt;br&gt;decryption or signing and verification, &lt;br&gt;but not both.&lt;/b&gt;" style="text;html=1;align=left;verticalAlign=middle;resizable=0;points=[];autosize=1;strokeColor=none;fillColor=none;fontSize=10;" vertex="1" parent="1">
          <mxGeometry x="332" y="814" width="210" height="70" as="geometry" />
        </mxCell>
        <mxCell id="1nwDkbsSWTysiVb-nrvI-9" value="" style="endArrow=none;html=1;rounded=0;fontSize=10;" edge="1" parent="1">
          <mxGeometry width="50" height="50" relative="1" as="geometry">
            <mxPoint x="330" y="692.5" as="sourcePoint" />
            <mxPoint x="330" y="642.5" as="targetPoint" />
          </mxGeometry>
        </mxCell>
        <mxCell id="1nwDkbsSWTysiVb-nrvI-10" value="&lt;font style=&quot;font-size: 12px;&quot;&gt;AWS KMS&amp;nbsp; Keys&lt;/font&gt;" style="text;html=1;align=center;verticalAlign=middle;resizable=0;points=[];autosize=1;strokeColor=none;fillColor=none;fontSize=10;" vertex="1" parent="1">
          <mxGeometry x="577" y="696" width="110" height="30" as="geometry" />
        </mxCell>
        <mxCell id="1nwDkbsSWTysiVb-nrvI-11" value="AWS managed keys&amp;nbsp;" style="text;html=1;align=center;verticalAlign=middle;resizable=0;points=[];autosize=1;strokeColor=none;fillColor=none;fontSize=12;" vertex="1" parent="1">
          <mxGeometry x="579" y="740.5" width="140" height="30" as="geometry" />
        </mxCell>
        <mxCell id="1nwDkbsSWTysiVb-nrvI-12" value="KMS keys that AWS services&lt;br&gt;&amp;nbsp;create in your account" style="text;html=1;align=center;verticalAlign=middle;resizable=0;points=[];autosize=1;strokeColor=default;fillColor=none;fontSize=12;rounded=1;" vertex="1" parent="1">
          <mxGeometry x="555" y="765.5" width="180" height="40" as="geometry" />
        </mxCell>
        <mxCell id="1nwDkbsSWTysiVb-nrvI-13" value="Customer managed Keys&amp;nbsp;" style="text;html=1;align=center;verticalAlign=middle;resizable=0;points=[];autosize=1;strokeColor=none;fillColor=none;fontSize=12;" vertex="1" parent="1">
          <mxGeometry x="562" y="829.5" width="160" height="30" as="geometry" />
        </mxCell>
        <mxCell id="1nwDkbsSWTysiVb-nrvI-14" value="KMS keys created by the user" style="text;html=1;align=center;verticalAlign=middle;resizable=0;points=[];autosize=1;strokeColor=default;fillColor=none;fontSize=12;rounded=1;" vertex="1" parent="1">
          <mxGeometry x="551" y="854.5" width="180" height="30" as="geometry" />
        </mxCell>
        <mxCell id="1nwDkbsSWTysiVb-nrvI-15" value="" style="rounded=1;whiteSpace=wrap;html=1;fontSize=12;strokeColor=default;fillColor=none;" vertex="1" parent="1">
          <mxGeometry x="544" y="740.5" width="206" height="75" as="geometry" />
        </mxCell>
        <mxCell id="1nwDkbsSWTysiVb-nrvI-16" value="" style="rounded=1;whiteSpace=wrap;html=1;fontSize=12;strokeColor=default;fillColor=none;" vertex="1" parent="1">
          <mxGeometry x="543" y="827.5" width="206" height="67.5" as="geometry" />
        </mxCell>
        <mxCell id="1nwDkbsSWTysiVb-nrvI-17" value="AWS owned keys" style="text;html=1;align=center;verticalAlign=middle;resizable=0;points=[];autosize=1;strokeColor=none;fillColor=none;fontSize=12;" vertex="1" parent="1">
          <mxGeometry x="573" y="910" width="120" height="30" as="geometry" />
        </mxCell>
        <mxCell id="1nwDkbsSWTysiVb-nrvI-18" value="KMS&amp;nbsp; keys that access services&lt;br&gt;&amp;nbsp;create in a service account&amp;nbsp;" style="text;html=1;align=center;verticalAlign=middle;resizable=0;points=[];autosize=1;strokeColor=default;fillColor=none;fontSize=12;rounded=1;" vertex="1" parent="1">
          <mxGeometry x="554" y="935" width="190" height="40" as="geometry" />
        </mxCell>
        <mxCell id="1nwDkbsSWTysiVb-nrvI-19" value="" style="rounded=1;whiteSpace=wrap;html=1;fontSize=12;strokeColor=default;fillColor=none;" vertex="1" parent="1">
          <mxGeometry x="543" y="913" width="210" height="70" as="geometry" />
        </mxCell>
        <mxCell id="1nwDkbsSWTysiVb-nrvI-20" value="" style="rounded=1;whiteSpace=wrap;html=1;fontSize=12;strokeColor=#FF9933;fillColor=none;dashed=1;" vertex="1" parent="1">
          <mxGeometry x="532" y="682" width="233" height="319" as="geometry" />
        </mxCell>
      </root>
    </mxGraphModel>
  </diagram>
</mxfile>
